<svg xmlns="http://www.w3.org/2000/svg" viewBox="0 0 32 32" fill="none">
  <path d="M16 2L29 8.5V19C29 25.8 23.2 30.5 16 32C8.8 30.5 3 25.8 3 19V8.5L16 2Z" fill="#090b0f" stroke="#00d4aa" stroke-width="1.5"/>
  <path d="M20 11.5C18.8 10.5 17.5 10 16 10C13.8 10 12 11.5 12 13.3C12 15 13.2 15.8 15.5 16.5C17.8 17.2 19.5 17.8 19.5 19.7C19.5 21.5 18 23 16 23C14.2 23 12.8 22.3 12 21.5" stroke="#00d4aa" stroke-width="1.6" stroke-linecap="round"/>
  <line x1="16" y1="8.5" x2="16" y2="10" stroke="#00d4aa" stroke-width="1.6" stroke-linecap="round"/>
  <line x1="16" y1="23" x2="16" y2="24.5" stroke="#00d4aa" stroke-width="1.6" stroke-linecap="round"/>
</svg>
